<svg xmlns="http://www.w3.org/2000/svg" xmlns:xlink="http://www.w3.org/1999/xlink" width="500" zoomAndPan="magnify" viewBox="0 0 375 374.999991" height="500" preserveAspectRatio="xMidYMid meet" version="1.0"><defs><g/><clipPath id="01e30135e2"><path d="M 131.25 131.25 L 243.75 131.25 L 243.75 243.75 L 131.25 243.75 Z M 131.25 131.25 " clip-rule="nonzero"/></clipPath><clipPath id="30e982818d"><path d="M 187.5 131.25 C 156.433594 131.25 131.25 156.433594 131.25 187.5 C 131.25 218.566406 156.433594 243.75 187.5 243.75 C 218.566406 243.75 243.75 218.566406 243.75 187.5 C 243.75 156.433594 218.566406 131.25 187.5 131.25 Z M 187.5 131.25 " clip-rule="nonzero"/></clipPath></defs><rect x="-37.5" width="450" fill="#ffffff" y="-37.499999" height="449.999989" fill-opacity="1"/><rect x="-37.5" width="450" fill="#e1e1e1" y="-37.499999" height="449.999989" fill-opacity="1"/><g clip-path="url(#01e30135e2)"><g clip-path="url(#30e982818d)"><path fill="#168033" d="M 131.25 131.25 L 243.75 131.25 L 243.75 243.75 L 131.25 243.75 Z M 131.25 131.25 " fill-opacity="1" fill-rule="nonzero"/></g></g><g fill="#000000" fill-opacity="1"><g transform="translate(166.030467, 267.133319)"><g><path d="M 18.890625 -42.234375 C 13.390625 -35.035156 10.640625 -27.253906 10.640625 -18.890625 C 10.640625 -8.941406 14.820312 -1.21875 23.1875 4.28125 C 28.050781 7.5625 33.578125 9.203125 39.765625 9.203125 C 45.960938 9.203125 51.335938 7.988281 55.890625 5.5625 C 64.472656 1.113281 69.289062 -6.347656 70.34375 -16.828125 C 70.445312 -17.566406 70.5 -18.3125 70.5 -19.0625 C 70.5 -22.976562 69.414062 -27.210938 67.25 -31.765625 C 65.082031 -36.316406 61.5625 -40.492188 56.6875 -44.296875 L 28.109375 -66.859375 C 21.859375 -71.722656 18.734375 -78.019531 18.734375 -85.75 C 18.734375 -93.476562 21.222656 -100.015625 26.203125 -105.359375 C 31.179688 -110.703125 37.90625 -113.375 46.375 -113.375 C 50.601562 -113.375 55.207031 -112.847656 60.1875 -111.796875 L 66.53125 -111.796875 L 66.859375 -92.265625 L 65.265625 -92.265625 C 65.160156 -97.347656 63.332031 -101.34375 59.78125 -104.25 C 56.238281 -107.15625 51.789062 -108.609375 46.4375 -108.609375 C 41.09375 -108.609375 36.617188 -106.835938 33.015625 -103.296875 C 29.421875 -99.753906 27.625 -95.203125 27.625 -89.640625 C 27.625 -84.078125 29.957031 -79.445312 34.625 -75.75 L 64 -52.5625 C 75.644531 -43.351562 81.46875 -32.238281 81.46875 -19.21875 C 81.46875 -9.476562 77.601562 -1.113281 69.875 5.875 C 63.195312 11.90625 54.300781 14.921875 43.1875 14.921875 C 36.414062 14.921875 30.382812 13.648438 25.09375 11.109375 C 15.132812 6.453125 9.148438 -1.484375 7.140625 -12.703125 C 6.828125 -14.398438 6.671875 -16.546875 6.671875 -19.140625 C 6.671875 -21.734375 7.410156 -25.273438 8.890625 -29.765625 C 10.367188 -34.265625 13.226562 -38.789062 17.46875 -43.34375 Z M 18.890625 -42.234375 "/></g></g></g><g fill="#000000" fill-opacity="1"><g transform="translate(93.307998, 235.88332)"><g><path d="M 126.5625 -55.734375 C 126.5625 -37.523438 121.664062 -23.3125 111.875 -13.09375 C 102.082031 -2.882812 88.238281 2.21875 70.34375 2.21875 C 58.28125 2.21875 47.40625 -0.316406 37.71875 -5.390625 C 28.03125 -10.472656 20.507812 -17.40625 15.15625 -26.1875 C 9.8125 -34.976562 7.140625 -44.800781 7.140625 -55.65625 C 7.140625 -66.507812 9.785156 -76.328125 15.078125 -85.109375 C 20.378906 -93.898438 27.6875 -100.804688 37 -105.828125 C 46.3125 -110.859375 56.6875 -113.375 68.125 -113.375 C 75.320312 -113.375 82.648438 -112.394531 90.109375 -110.4375 C 97.578125 -108.476562 103.800781 -105.859375 108.78125 -102.578125 L 111.953125 -80.1875 L 110.515625 -80.1875 C 108.296875 -89.082031 103.160156 -96.039062 95.109375 -101.0625 C 87.066406 -106.09375 78.125 -108.609375 68.28125 -108.609375 C 54.195312 -108.609375 42.472656 -103.609375 33.109375 -93.609375 C 23.742188 -83.609375 19.0625 -71.035156 19.0625 -55.890625 C 19.0625 -40.753906 23.898438 -28.078125 33.578125 -17.859375 C 43.265625 -7.648438 55.941406 -2.546875 71.609375 -2.546875 C 87.285156 -2.546875 100.070312 -7.625 109.96875 -17.78125 C 119.863281 -27.945312 124.8125 -41.867188 124.8125 -59.546875 L 126.40625 -59.546875 C 126.507812 -58.273438 126.5625 -57.003906 126.5625 -55.734375 Z M 126.5625 -55.734375 "/></g></g></g><path fill="#e1e1e1" d="M 98.226562 179.496094 L 262.078125 179.496094 C 263.140625 179.496094 264.15625 179.917969 264.90625 180.667969 C 265.65625 181.417969 266.078125 182.4375 266.078125 183.5 L 266.078125 191.5 C 266.078125 192.5625 265.65625 193.582031 264.90625 194.332031 C 264.15625 195.082031 263.140625 195.503906 262.078125 195.503906 L 98.226562 195.503906 C 97.167969 195.503906 96.148438 195.082031 95.398438 194.332031 C 94.648438 193.582031 94.226562 192.5625 94.226562 191.5 L 94.226562 183.5 C 94.226562 182.4375 94.648438 181.417969 95.398438 180.667969 C 96.148438 179.917969 97.167969 179.496094 98.226562 179.496094 Z M 98.226562 179.496094 " fill-opacity="1" fill-rule="nonzero"/><g fill="#000000" fill-opacity="1"><g transform="translate(102.044632, 190.499987)"><g><path d="M 6.765625 -1.375 C 6.484375 -0.90625 6.09375 -0.539062 5.59375 -0.28125 C 5.101562 -0.03125 4.550781 0.09375 3.9375 0.09375 C 3.207031 0.09375 2.582031 -0.046875 2.0625 -0.328125 C 1.539062 -0.609375 1.140625 -1.007812 0.859375 -1.53125 C 0.585938 -2.0625 0.453125 -2.691406 0.453125 -3.421875 C 0.453125 -4.171875 0.601562 -4.828125 0.90625 -5.390625 C 1.21875 -5.960938 1.644531 -6.410156 2.1875 -6.734375 C 2.738281 -7.054688 3.375 -7.21875 4.09375 -7.21875 C 4.707031 -7.21875 5.234375 -7.097656 5.671875 -6.859375 C 6.109375 -6.628906 6.472656 -6.273438 6.765625 -5.796875 L 5.765625 -5.078125 C 5.585938 -5.410156 5.351562 -5.65625 5.0625 -5.8125 C 4.769531 -5.96875 4.445312 -6.046875 4.09375 -6.046875 C 3.632812 -6.046875 3.226562 -5.929688 2.875 -5.703125 C 2.53125 -5.484375 2.257812 -5.175781 2.0625 -4.78125 C 1.863281 -4.394531 1.765625 -3.945312 1.765625 -3.4375 C 1.765625 -2.695312 1.957031 -2.117188 2.34375 -1.703125 C 2.726562 -1.285156 3.265625 -1.078125 3.953125 -1.078125 C 4.335938 -1.078125 4.6875 -1.164062 5 -1.34375 C 5.320312 -1.519531 5.585938 -1.785156 5.796875 -2.140625 Z M 6.765625 -1.375 "/></g></g></g><g fill="#000000" fill-opacity="1"><g transform="translate(116.352418, 190.499987)"><g><path d="M 0.734375 0 L 0.734375 -7.109375 L 2.03125 -7.109375 L 2.03125 -1.140625 L 5.203125 -1.140625 L 5.109375 0 Z M 0.734375 0 "/></g></g></g><g fill="#000000" fill-opacity="1"><g transform="translate(129.118993, 190.499987)"><g><path d="M 0.734375 0 L 0.734375 -7.109375 L 2.03125 -7.109375 L 2.03125 0 Z M 0.734375 0 "/></g></g></g><g fill="#000000" fill-opacity="1"><g transform="translate(139.503699, 190.499987)"><g><path d="M 3.890625 0.09375 C 3.171875 0.09375 2.550781 -0.0390625 2.03125 -0.3125 C 1.519531 -0.59375 1.128906 -0.992188 0.859375 -1.515625 C 0.585938 -2.046875 0.453125 -2.679688 0.453125 -3.421875 C 0.453125 -4.160156 0.597656 -4.816406 0.890625 -5.390625 C 1.179688 -5.960938 1.59375 -6.410156 2.125 -6.734375 C 2.664062 -7.054688 3.304688 -7.21875 4.046875 -7.21875 C 4.703125 -7.21875 5.273438 -7.066406 5.765625 -6.765625 C 6.265625 -6.472656 6.648438 -6.0625 6.921875 -5.53125 C 7.191406 -5.007812 7.328125 -4.398438 7.328125 -3.703125 C 7.328125 -2.929688 7.175781 -2.257812 6.875 -1.6875 C 6.582031 -1.125 6.175781 -0.6875 5.65625 -0.375 C 5.144531 -0.0625 4.554688 0.09375 3.890625 0.09375 Z M 3.859375 -1.078125 C 4.273438 -1.078125 4.644531 -1.179688 4.96875 -1.390625 C 5.289062 -1.597656 5.546875 -1.894531 5.734375 -2.28125 C 5.921875 -2.664062 6.015625 -3.140625 6.015625 -3.703125 C 6.015625 -4.410156 5.832031 -4.976562 5.46875 -5.40625 C 5.101562 -5.832031 4.617188 -6.046875 4.015625 -6.046875 C 3.578125 -6.046875 3.191406 -5.9375 2.859375 -5.71875 C 2.523438 -5.5 2.257812 -5.195312 2.0625 -4.8125 C 1.863281 -4.425781 1.765625 -3.972656 1.765625 -3.453125 C 1.765625 -2.691406 1.953125 -2.101562 2.328125 -1.6875 C 2.703125 -1.28125 3.210938 -1.078125 3.859375 -1.078125 Z M 3.859375 -1.078125 "/></g></g></g><g fill="#000000" fill-opacity="1"><g transform="translate(154.902347, 190.499987)"><g/></g></g><g fill="#000000" fill-opacity="1"><g transform="translate(164.956799, 190.499987)"><g><path d="M 2.9375 0.09375 C 2.101562 0.09375 1.453125 -0.09375 0.984375 -0.46875 C 0.523438 -0.84375 0.257812 -1.390625 0.1875 -2.109375 L 1.40625 -2.296875 C 1.53125 -1.441406 2.0625 -1.015625 3 -1.015625 C 3.40625 -1.015625 3.722656 -1.09375 3.953125 -1.25 C 4.179688 -1.414062 4.296875 -1.644531 4.296875 -1.9375 C 4.296875 -2.207031 4.179688 -2.410156 3.953125 -2.546875 C 3.722656 -2.679688 3.359375 -2.8125 2.859375 -2.9375 C 2.390625 -3.050781 1.988281 -3.1875 1.65625 -3.34375 C 1.320312 -3.5 1.066406 -3.707031 0.890625 -3.96875 C 0.710938 -4.238281 0.625 -4.59375 0.625 -5.03125 C 0.625 -5.457031 0.734375 -5.832031 0.953125 -6.15625 C 1.171875 -6.488281 1.46875 -6.75 1.84375 -6.9375 C 2.226562 -7.125 2.671875 -7.21875 3.171875 -7.21875 C 3.835938 -7.21875 4.378906 -7.039062 4.796875 -6.6875 C 5.210938 -6.34375 5.457031 -5.867188 5.53125 -5.265625 L 4.390625 -5.0625 C 4.253906 -5.757812 3.828125 -6.109375 3.109375 -6.109375 C 2.765625 -6.109375 2.484375 -6.015625 2.265625 -5.828125 C 2.046875 -5.648438 1.9375 -5.414062 1.9375 -5.125 C 1.9375 -4.832031 2.039062 -4.609375 2.25 -4.453125 C 2.46875 -4.296875 2.835938 -4.15625 3.359375 -4.03125 C 3.816406 -3.925781 4.210938 -3.800781 4.546875 -3.65625 C 4.878906 -3.519531 5.132812 -3.320312 5.3125 -3.0625 C 5.5 -2.8125 5.59375 -2.460938 5.59375 -2.015625 C 5.59375 -1.609375 5.476562 -1.242188 5.25 -0.921875 C 5.03125 -0.609375 4.722656 -0.359375 4.328125 -0.171875 C 3.929688 0.00390625 3.46875 0.09375 2.9375 0.09375 Z M 2.9375 0.09375 "/></g></g></g><g fill="#000000" fill-opacity="1"><g transform="translate(178.443941, 190.499987)"><g><path d="M -0.09375 0 L 2.9375 -7.109375 L 4.03125 -7.109375 L 6.953125 0 L 5.625 0 L 4.984375 -1.625 L 1.890625 -1.625 L 1.21875 0 Z M 2.328125 -2.71875 L 4.5625 -2.71875 L 3.46875 -5.515625 Z M 2.328125 -2.71875 "/></g></g></g><g fill="#000000" fill-opacity="1"><g transform="translate(192.951884, 190.499987)"><g><path d="M 0.734375 0 L 0.734375 -7.109375 L 2.03125 -7.109375 L 2.03125 -1.140625 L 5.203125 -1.140625 L 5.109375 0 Z M 0.734375 0 "/></g></g></g><g fill="#000000" fill-opacity="1"><g transform="translate(205.71846, 190.499987)"><g><path d="M 4.203125 -3.703125 L 7.015625 -3.703125 L 7.015625 0 L 5.984375 0 L 5.875 -0.765625 C 5.644531 -0.453125 5.347656 -0.226562 4.984375 -0.09375 C 4.628906 0.03125 4.234375 0.09375 3.796875 0.09375 C 3.117188 0.09375 2.523438 -0.046875 2.015625 -0.328125 C 1.515625 -0.609375 1.128906 -1.007812 0.859375 -1.53125 C 0.585938 -2.0625 0.453125 -2.691406 0.453125 -3.421875 C 0.453125 -4.171875 0.601562 -4.828125 0.90625 -5.390625 C 1.21875 -5.960938 1.660156 -6.410156 2.234375 -6.734375 C 2.804688 -7.054688 3.476562 -7.21875 4.25 -7.21875 C 4.875 -7.21875 5.410156 -7.097656 5.859375 -6.859375 C 6.304688 -6.628906 6.675781 -6.28125 6.96875 -5.8125 L 5.96875 -5.078125 C 5.789062 -5.398438 5.546875 -5.632812 5.234375 -5.78125 C 4.929688 -5.9375 4.597656 -6.015625 4.234375 -6.015625 C 3.734375 -6.015625 3.300781 -5.90625 2.9375 -5.6875 C 2.570312 -5.476562 2.289062 -5.175781 2.09375 -4.78125 C 1.894531 -4.394531 1.796875 -3.945312 1.796875 -3.4375 C 1.796875 -2.6875 1.984375 -2.101562 2.359375 -1.6875 C 2.742188 -1.28125 3.265625 -1.078125 3.921875 -1.078125 C 4.234375 -1.078125 4.53125 -1.132812 4.8125 -1.25 C 5.09375 -1.363281 5.320312 -1.53125 5.5 -1.75 C 5.675781 -1.976562 5.765625 -2.253906 5.765625 -2.578125 L 5.765625 -2.640625 L 4.203125 -2.640625 Z M 4.203125 -3.703125 "/></g></g></g><g fill="#000000" fill-opacity="1"><g transform="translate(220.866912, 190.499987)"><g><path d="M -0.09375 0 L 2.9375 -7.109375 L 4.03125 -7.109375 L 6.953125 0 L 5.625 0 L 4.984375 -1.625 L 1.890625 -1.625 L 1.21875 0 Z M 2.328125 -2.71875 L 4.5625 -2.71875 L 3.46875 -5.515625 Z M 2.328125 -2.71875 "/></g></g></g><g fill="#000000" fill-opacity="1"><g transform="translate(235.37486, 190.499987)"><g><path d="M 0.734375 0 L 0.734375 -7.109375 L 2.84375 -7.109375 C 4.226562 -7.109375 5.273438 -6.8125 5.984375 -6.21875 C 6.691406 -5.625 7.046875 -4.742188 7.046875 -3.578125 C 7.046875 -2.859375 6.882812 -2.226562 6.5625 -1.6875 C 6.25 -1.15625 5.804688 -0.738281 5.234375 -0.4375 C 4.660156 -0.144531 3.988281 0 3.21875 0 Z M 2.03125 -1.15625 L 3.171875 -1.15625 C 4.003906 -1.15625 4.632812 -1.351562 5.0625 -1.75 C 5.5 -2.15625 5.71875 -2.75 5.71875 -3.53125 C 5.71875 -4.34375 5.492188 -4.945312 5.046875 -5.34375 C 4.609375 -5.75 3.929688 -5.953125 3.015625 -5.953125 L 2.03125 -5.953125 Z M 2.03125 -1.15625 "/></g></g></g><g fill="#000000" fill-opacity="1"><g transform="translate(250.483281, 190.499987)"><g><path d="M 3.890625 0.09375 C 3.171875 0.09375 2.550781 -0.0390625 2.03125 -0.3125 C 1.519531 -0.59375 1.128906 -0.992188 0.859375 -1.515625 C 0.585938 -2.046875 0.453125 -2.679688 0.453125 -3.421875 C 0.453125 -4.160156 0.597656 -4.816406 0.890625 -5.390625 C 1.179688 -5.960938 1.59375 -6.410156 2.125 -6.734375 C 2.664062 -7.054688 3.304688 -7.21875 4.046875 -7.21875 C 4.703125 -7.21875 5.273438 -7.066406 5.765625 -6.765625 C 6.265625 -6.472656 6.648438 -6.0625 6.921875 -5.53125 C 7.191406 -5.007812 7.328125 -4.398438 7.328125 -3.703125 C 7.328125 -2.929688 7.175781 -2.257812 6.875 -1.6875 C 6.582031 -1.125 6.175781 -0.6875 5.65625 -0.375 C 5.144531 -0.0625 4.554688 0.09375 3.890625 0.09375 Z M 3.859375 -1.078125 C 4.273438 -1.078125 4.644531 -1.179688 4.96875 -1.390625 C 5.289062 -1.597656 5.546875 -1.894531 5.734375 -2.28125 C 5.921875 -2.664062 6.015625 -3.140625 6.015625 -3.703125 C 6.015625 -4.410156 5.832031 -4.976562 5.46875 -5.40625 C 5.101562 -5.832031 4.617188 -6.046875 4.015625 -6.046875 C 3.578125 -6.046875 3.191406 -5.9375 2.859375 -5.71875 C 2.523438 -5.5 2.257812 -5.195312 2.0625 -4.8125 C 1.863281 -4.425781 1.765625 -3.972656 1.765625 -3.453125 C 1.765625 -2.691406 1.953125 -2.101562 2.328125 -1.6875 C 2.703125 -1.28125 3.210938 -1.078125 3.859375 -1.078125 Z M 3.859375 -1.078125 "/></g></g></g></svg>